# xmcd
#
# Track frame offsets:
#	182
#	12962
#	27575
#	41005
#	59910
#	75627
#	90712
#	105755
#	120230
#	137450
#	157507
#	169747
#
# Disc length: 2480 seconds
#
# Revision: 1
# Processed by: cddbd v1.4PL0 Copyright (c) Steve Scherf et al.
# Submitted via: audiograbber 1.80.04
#
DISCID=8609ae0c
DTITLE=Tracy Lawrence - Tracy Lawrence
DYEAR=2001
DGENRE=Country
TTITLE0=Crawlin' Again
TTITLE1=Life Don't Have To Be So Hard
TTITLE2=It's Got You All Over It
TTITLE3=Getting Back Up
TTITLE4=It's Hard To Be An Outlaw
TTITLE5=Meant To Be
TTITLE6=That Was Us
TTITLE7=She Loved The Devil Out Of Me
TTITLE8=Whole Lot Of Lettin' Go
TTITLE9=What A Memory
TTITLE10=God's Green Earth
TTITLE11=I Won All The Battles
EXTD=
EXTT0=
EXTT1=
EXTT2=
EXTT3=
EXTT4=
EXTT5=
EXTT6=
EXTT7=
EXTT8=
EXTT9=
EXTT10=
EXTT11=
PLAYORDER=
